<svg xmlns="http://www.w3.org/2000/svg" viewBox="0 0 64 64">
  <defs>
    <pattern id="digicamo" patternUnits="userSpaceOnUse" width="16" height="16">
      <!-- Base layer - dark olive -->
      <rect width="16" height="16" fill="#2d3a1e"/>
      <!-- Digital camo blocks - greens, tans, browns -->
      <rect x="0" y="0" width="4" height="4" fill="#4a5d2e"/>
      <rect x="8" y="0" width="4" height="4" fill="#6b7a3d"/>
      <rect x="4" y="4" width="4" height="4" fill="#3e4f26"/>
      <rect x="12" y="4" width="4" height="4" fill="#1f2b14"/>
      <rect x="0" y="8" width="4" height="4" fill="#8b7355"/>
      <rect x="8" y="8" width="4" height="4" fill="#1f2b14"/>
      <rect x="4" y="12" width="4" height="4" fill="#6b7a3d"/>
      <rect x="12" y="12" width="4" height="4" fill="#5c4a32"/>
      <!-- Smaller detail blocks -->
      <rect x="2" y="2" width="2" height="2" fill="#7a8c4a"/>
      <rect x="10" y="6" width="2" height="2" fill="#5c4a32"/>
      <rect x="6" y="10" width="2" height="2" fill="#2d3a1e"/>
      <rect x="14" y="2" width="2" height="2" fill="#4a5d2e"/>
      <rect x="0" y="14" width="2" height="2" fill="#8b7355"/>
      <rect x="6" y="0" width="2" height="2" fill="#3e4f26"/>
      <rect x="10" y="14" width="2" height="2" fill="#7a8c4a"/>
      <rect x="14" y="10" width="2" height="2" fill="#4a5d2e"/>
    </pattern>
  </defs>
  <rect width="64" height="64" fill="url(#digicamo)"/>
  <text x="50" y="56" font-family="Arial Black, Arial, sans-serif" font-size="28" font-weight="900" fill="#0ea5e9" text-anchor="end" style="text-shadow: 1px 1px 2px rgba(0,0,0,0.5);">SM</text>
</svg>
